HIERARCHY
ROOT ui
{
	 OFFSET 0 0 0
	 CHANNELS 3 XPosition YPosition Z Position
	 EndSite
	 {
	 OFFSET 0 -1 0
	 }
}
ROOT li
{
	 OFFSET 0 0 0
	 CHANNELS 3 XPosition YPosition Z Position
	 EndSite
	 {
	 OFFSET 0 -1 0
	 }
}
ROOT ul
{
	 OFFSET 0 0 0
	 CHANNELS 3 XPosition YPosition Z Position
	 EndSite
	 {
	 OFFSET 0 -1 0
	 }
}
ROOT ll
{
	 OFFSET 0 0 0
	 CHANNELS 3 XPosition YPosition Z Position
	 EndSite
	 {
	 OFFSET 0 -1 0
	 }
}
ROOT tt
{
	 OFFSET 0 0 0
	 CHANNELS 3 XPosition YPosition Z Position
	 EndSite
	 {
	 OFFSET 0 -1 0
	 }
}
ROOT tb
{
	 OFFSET 0 0 0
	 CHANNELS 3 XPosition YPosition Z Position
	 EndSite
	 {
	 OFFSET 0 -1 0
	 }
}
ROOT td
{
	 OFFSET 0 0 0
	 CHANNELS 3 XPosition YPosition Z Position
	 EndSite
	 {
	 OFFSET 0 -1 0
	 }
}
ROOT v
{
	 OFFSET 0 0 0
	 CHANNELS 3 XPosition YPosition Z Position
	 EndSite
	 {
	 OFFSET 0 -1 0
	 }
}
ROOT bn
{
	 OFFSET 0 0 0
	 CHANNELS 3 XPosition YPosition Z Position
	 EndSite
	 {
	 OFFSET 0 -1 0
	 }
}
MOTION
Frames: 32
Frame Time: 0.002
-1.581369936466217E-4	1.9510899484157562E-4	0		0.43539312744140624	-2.430187744140625	0		-1.0588157958984374	0.0277797794342041	0		-0.8316066284179687	-2.5153798828125	0		1.3403348388671874	-0.8232996826171874	0		3.226972412109375	-0.320651123046875	0		4.81017236328125	-0.2779130859375	0		5.5281591796875	0.05752166366577149	0		0.09720802307128906	6.00245751953125	0		
-0.049781440734863285	0.004982315063476563	0		0.41319497680664063	-2.422881103515625	0		-1.0493946533203125	0.03421156692504883	0		-0.78992626953125	-2.5155595703125	0		1.36686181640625	-0.8178463134765624	0		3.23277099609375	-0.2974892272949219	0		4.81876171875	-0.26456881713867186	0		5.53257666015625	0.06505739593505859	0		0.11179925537109375	6.01294287109375	0		
0.0034644401073455813	0.002689011096954346	0		0.49059262084960936	-2.43658203125	0		-1.06415966796875	0.032128204345703126	0		-0.7933372192382813	-2.519822998046875	0		1.3352728271484375	-0.817213134765625	0		3.225895263671875	-0.30706585693359373	0		4.8211201171875	-0.26208197021484375	0		5.5287041015625	0.0587774772644043	0		-0.03653116226196289	5.98069677734375	0		
-0.05233205413818359	5.874390006065369E-4	0		0.4352928466796875	-2.432609375	0		-1.067990966796875	0.027825849533081055	0		-0.8055729370117187	-2.51390625	0		1.3566275634765625	-0.8186431274414062	0		3.204359130859375	-0.2983486328125	0		4.82211376953125	-0.2765716857910156	0		5.5241279296875	0.06851191711425782	0		-0.03720338821411133	5.98047265625	0		
8.746179938316346E-4	-6.819639801979065E-4	0		0.4628112182617187	-2.436290771484375	0		-1.0577998046875	0.026254039764404297	0		-0.840911376953125	-2.51052978515625	0		1.3418719482421875	-0.823355224609375	0		3.228201171875	-0.3195508117675781	0		4.8065537109375	-0.2667456359863281	0		5.51533642578125	0.06930693054199219	0		-0.03788565444946289	5.98025341796875	0		
-0.051937793731689455	1.5016199648380278E-4	0		0.4115056762695313	-2.42741357421875	0		-1.0535484619140625	0.029814493179321288	0		-0.791559326171875	-2.52081884765625	0		1.34216748046875	-0.82337060546875	0		3.215976318359375	-0.2910452880859375	0		4.81572802734375	-0.2684392700195313	0		5.52932421875	0.06061836624145508	0		-0.02333527755737305	5.9917431640625	0		
0.004249421119689942	0.0018490589857101441	0		0.46994369506835937	-2.42968994140625	0		-1.0483555908203126	0.032371646881103514	0		-0.8259739990234375	-2.515447021484375	0		1.3475540771484376	-0.8164893188476563	0		3.22686083984375	-0.3060227661132813	0		4.81590380859375	-0.26798828125	0		5.5335908203125	0.06808680725097656	0		0.1084149398803711	6.01196044921875	0		
0.0043579678535461425	0.0016545720100402833	0		0.4393267822265625	-2.431224853515625	0		-1.063286865234375	0.03033490562438965	0		-0.8014935913085938	-2.513211669921875	0		1.3835849609375	-0.8262094116210937	0		3.22700830078125	-0.30580975341796873	0		4.827025390625	-0.26878713989257813	0		5.5247314453125	0.07076542663574219	0		0.09255329132080078	6.00107177734375	0		
0.0013885589838027953	-0.0014742590188980102	0		0.4645964965820312	-2.436841552734375	0		-1.063202392578125	0.030023664474487306	0		-0.805189697265625	-2.517414794921875	0		1.352025146484375	-0.8126226806640625	0		3.231976806640625	-0.313717041015625	0		4.81616552734375	-0.2672021179199219	0		5.52481103515625	0.07122000122070313	0		0.09194367980957031	6.00089453125	0		
0.0014657210111618042	-0.0016540830135345459	0		0.4379908447265625	-2.433456787109375	0		-1.057225341796875	0.024618507385253906	0		-0.80688720703125	-2.519640380859375	0		1.3608984375	-0.8278307495117188	0		3.218280517578125	-0.30329266357421875	0		4.82313525390625	-0.2740109252929688	0		5.52970751953125	0.06252400207519532	0		-0.04104243087768555	5.979255859375	0		
0.0015411670207977294	-0.001825819969177246	0		0.4154264221191406	-2.426151611328125	0		-1.0530767822265625	0.028272928237915038	0		-0.8635137939453125	-2.515800537109375	0		1.3451856689453126	-0.820574462890625	0		3.227343994140625	-0.305341064453125	0		4.8163701171875	-0.2666092224121094	0		5.52077880859375	0.06302975845336914	0		-0.02628853225708008	5.9907919921875	0		
0.01586766242980957	0.010743131637573242	0		0.4446911010742188	-2.426832763671875	0		-1.0479407958984375	0.03093285942077637	0		-0.7873075561523437	-2.52047216796875	0		1.351463134765625	-0.8137486572265625	0		3.23463818359375	-0.29538916015625	0		4.82058642578125	-0.2604767150878906	0		5.533986328125	0.07004579925537109	0		-0.011463828086853027	6.00134033203125	0		
0.0017200599908828735	-0.002142988920211792	0		0.4340552062988281	-2.420752197265625	0		-1.058825439453125	0.031920772552490234	0		-0.8118215942382813	-2.508205078125	0		1.363400390625	-0.8250430908203125	0		3.2275654296875	-0.305206298828125	0		4.81658642578125	-0.2662518615722656	0		5.52994677734375	0.06331558990478516	0		0.09025685119628907	6.00025634765625	0		
0.004892429828643799	6.542180180549622E-4	0		0.49293740844726563	-2.43998681640625	0		-1.0627666015625	0.028800247192382812	0		-0.8136224975585937	-2.5103515625	0		1.34357861328125	-0.823746337890625	0		3.218735595703125	-0.30302786254882813	0		4.81671533203125	-0.2661666564941406	0		5.516232421875	0.07269750213623047	0		-0.04234390640258789	5.97860888671875	0		
0.0019764529466629027	-0.002426804065704346	0		0.43926239013671875	-2.4340927734375	0		-1.0626275634765625	0.02862666130065918	0		-0.8055886840820312	-2.520665771484375	0		1.3588375244140625	-0.8191231689453125	0		3.21771630859375	-0.31203851318359377	0		4.81273291015625	-0.27306796264648436	0		5.52119970703125	0.06365034103393555	0		-0.04240290069580078	5.9784697265625	0		
0.00214335298538208	-0.002558276891708374	0		0.4415132141113281	-2.432253662109375	0		-1.0524818115234376	0.027286819458007813	0		-0.837236083984375	-2.5132119140625	0		1.3439287109375	-0.823945556640625	0		3.219058349609375	-0.30312869262695313	0		4.8170361328125	-0.26618362426757813	0		5.51136669921875	0.0638128776550293	0		-0.027127655029296874	5.990052734375	0		
4.902600049972534E-4	0.005352581977844238	0		0.44581805419921877	-2.427452392578125	0		-1.05313525390625	0.03517218017578125	0		-0.799049560546875	-2.51505712890625	0		1.36716357421875	-0.8224953002929688	0		3.228217041015625	-0.30540252685546876	0		4.81723388671875	-0.2662784118652344	0		5.53055908203125	0.06336518859863281	0		-0.026969573974609376	5.98992724609375	0		
0.0025666890144348145	-0.0028032660484313965	0		0.4688983764648437	-2.435005615234375	0		-1.0579822998046875	0.03115214157104492	0		-0.8127561645507813	-2.510910400390625	0		1.344353515625	-0.824188232421875	0		3.22844287109375	-0.3055369873046875	0		4.8174599609375	-0.26642019653320315	0		5.52178857421875	0.06338941955566406	0		0.10569448852539062	6.01032080078125	0		
9.775180220603942E-4	0.005118338108062745	0		0.4333202819824219	-2.424450439453125	0		-1.057721923828125	0.031051727294921876	0		-0.7786300659179688	-2.5166533203125	0		1.3855574951171874	-0.8270922241210937	0		3.237659423828125	-0.3078639221191406	0		4.8286953125	-0.2678062438964844	0		5.5262177734375	0.07212394714355469	0		0.10603494262695312	6.01020458984375	0		
0.003120229959487915	-0.0030284559726715087	0		0.46731362915039065	-2.438208251953125	0		-1.0614833984375	0.028038665771484374	0		-0.8512803955078125	-2.510373291015625	0		1.3448792724609375	-0.8244586791992188	0		3.207140869140625	-0.2974579467773438	0		4.81800439453125	-0.2668079528808594	0		5.52234423828125	0.06297789001464844	0		0.09124641418457032	5.999376953125	0		
0.006504292964935303	-1.9326700270175934E-4	0		0.41777590942382814	-2.42738623046875	0		-1.0461195068359375	0.02967527389526367	0		-0.7892928466796875	-2.5256259765625	0		1.3472421875	-0.8216395263671875	0		3.219176025390625	-0.3128727111816406	0		4.82415478515625	-0.27615243530273437	0		5.522673828125	0.06272671127319336	0		-0.044377391815185546	5.99483447265625	0		
0.010922271728515625	0.00262454891204834	0		0.4490960998535156	-2.426091064453125	0		-1.045756591796875	0.02960135269165039	0		-0.8425824584960937	-2.502691162109375	0		1.3506541748046874	-0.8178439331054688	0		3.24271337890625	-0.3035133056640625	0		4.8207548828125	-0.2633322143554688	0		5.522	0.06047157669067383	0		-0.009725111961364746	6.0000859375	0		
0.007260162830352784	-4.0486600995063784E-4	0		0.4364863586425781	-2.421966064453125	0		-1.0563408203125	0.03073933982849121	0		-0.809392333984375	-2.509391845703125	0		1.3658663330078125	-0.8262772827148438	0		3.23004248046875	-0.3064811096191406	0		4.83417529296875	-0.26184637451171877	0		5.53243212890625	0.061990631103515624	0		0.10807703399658203	6.009763671875	0		
0.004625513076782227	-0.0034537920951843264	0		0.4347660827636719	-2.425049072265625	0		-1.05591796875	0.030670488357543945	0		-0.8500897216796875	-2.51069140625	0		1.346281494140625	-0.8250523681640625	0		3.198478271484375	-0.3050943298339844	0		4.8194765625	-0.26783740234375	0		5.50903125	0.07114298248291015	0		0.10871079254150391	6.00965380859375	0		
0.005069079875946045	-0.003562041997909546	0		0.43512335205078123	-2.425172607421875	0		-1.04955029296875	0.02648672676086426	0		-0.8127802124023438	-2.513471923828125	0		1.34669580078125	-0.8252084350585938	0		3.2357333984375	-0.3150179748535156	0		4.8308896484375	-0.2693261413574219	0		5.5333017578125	0.06138405609130859	0		0.09416231536865234	5.99882861328125	0		
0.005527246952056885	-0.003672853946685791	0		0.44637991333007815	-2.431507080078125	0		-1.044034912109375	0.029317350387573243	0		-0.834425537109375	-2.514134765625	0		1.3491817626953124	-0.8224051513671875	0		3.215336669921875	-0.3068442993164063	0		4.82447314453125	-0.26247506713867186	0		5.5188984375	0.0683626708984375	0		-0.022375165939331056	5.98894482421875	0		
0.009047975540161133	-8.437730073928833E-4	0		0.4488175048828125	-2.428674072265625	0		-1.0494732666015625	0.034353763580322265	0		-0.8059192504882813	-2.50775439453125	0		1.3526934814453124	-0.8186223754882812	0		3.2366337890625	-0.31546673583984375	0		4.84075390625	-0.27205718994140626	0		5.52936328125	0.06786954498291016	0		-0.040606609344482424	5.9941943359375	0		
0.00460418701171875	0.004136106967926025	0		0.43831491088867186	-2.422593994140625	0		-1.0481654052734375	0.02625581741333008	0		-0.8055410766601563	-2.5078427734375	0		1.3479937744140624	-0.8256840209960937	0		3.2252001953125	-0.30945831298828125	0		4.82537939453125	-0.26302508544921877	0		5.52569189453125	0.06065287780761719	0		0.11136460113525391	6.0091923828125	0		
0.006894306182861328	-0.004015775203704834	0		0.4993692626953125	-2.43988623046875	0		-0.9776574096679688	0.028831600189208984	0		-0.775349609375	-2.51750634765625	0		1.35762158203125	-0.8150131225585937	0		3.237517333984375	-0.3158973083496094	0		4.83268017578125	-0.2704155883789062	0		5.53030859375	0.06929610443115235	0		0.11198601531982422	6.00907421875	0		
-0.04568168258666992	-0.003114722967147827	0		0.4188890686035156	-2.430462890625	0		-1.053228271484375	0.03019871711730957	0		-0.8109358520507812	-2.513911376953125	0		1.36389892578125	-0.8212763671875	0		3.196238037109375	-0.2992930603027344	0		4.8221083984375	-0.2694436645507812	0		5.53072509765625	0.06903946685791015	0		0.11255496215820313	6.00895703125	0		
0.010739680290222167	-0.0013010849952697753	0		0.4481866149902344	-2.432140380859375	0		-1.0418746337890625	0.028897975921630858	0		-0.7966948852539063	-2.5182744140625	0		1.3512196044921876	-0.8231682739257813	0		3.238291015625	-0.31627685546875	0		4.83141796875	-0.2728316345214844	0		5.535888671875	0.05771453094482422	0		0.12728558349609376	6.0205712890625	0		
0.02225526237487793	0.008376914978027344	0		0.4256278076171875	-2.42381689453125	0		-1.041548583984375	0.02880733299255371	0		-0.7923369750976562	-2.51444677734375	0		1.3576641845703126	-0.8164170532226562	0		3.246821044921875	-0.3055975341796875	0		4.8358720703125	-0.26610244750976564	0		5.53621533203125	0.05750955581665039	0		-0.0037208330631256104	5.99897998046875	0		
